<?xml version="1.0" encoding="utf-8"?>
<!-- Generator: Adobe Illustrator 18.1.1, SVG Export Plug-In . SVG Version: 6.00 Build 0)  -->
<svg version="1.1" id="Layer_1" xmlns="http://www.w3.org/2000/svg" xmlns:xlink="http://www.w3.org/1999/xlink" x="0px" y="0px"
	 viewBox="0 0 382.1 310.1" enable-background="new 0 0 382.1 310.1" xml:space="preserve">
<g>
	<polygon fill="#004567" points="191,96.3 0,121 0,189.1 191,213.8 382.1,189.1 382.1,121 191,96.3 	"/>
	<g>
		<defs>
			<path id="SVGID_1_" d="M231.2,304.8c82.7-22.2,131.8-107.1,109.6-189.8C318.6,32.2,233.6-16.8,150.9,5.3
				C68.2,27.5,19.2,112.5,41.3,195.2C63.5,277.8,148.5,326.9,231.2,304.8L231.2,304.8z"/>
		</defs>
		<clipPath id="SVGID_2_">
			<use xlink:href="#SVGID_1_"  overflow="visible"/>
		</clipPath>
		<polygon clip-path="url(#SVGID_2_)" fill="#004567" points="191.9,-328.7 169.3,73.8 -51.6,-263.5 131.3,95.7 -230.1,-86.1 
			109.3,133.4 -295.8,155.9 109.2,177 -231,397.7 131.1,214.6 -53.2,574.5 169,236.3 190.2,638.8 212.8,236.2 433.7,573.6 
			250.8,214.4 612.2,396.2 272.8,176.7 677.9,154.1 272.8,133.1 613.1,-87.6 251,95.4 435.2,-264.4 213.1,73.7 191.9,-328.7 		"/>
	</g>
	<path fill="#004567" d="M223.9,278.6c68.2-18.3,108.7-88.4,90.4-156.6C296.1,53.7,226,13.2,157.7,31.5
		C89.5,49.8,49,119.9,67.3,188.1C85.6,256.4,155.7,296.8,223.9,278.6L223.9,278.6z"/>
	<path fill="#FFFFFF" d="M190.8,243.2c48.7,0,88.2-39.5,88.2-88.2s-39.5-88.2-88.2-88.2s-88.2,39.5-88.2,88.2
		S142.1,243.2,190.8,243.2L190.8,243.2z"/>
	<polygon fill="#FFFFFF" points="191.4,100.5 13.2,123.6 13.2,187.1 191.4,210.1 369.5,187.1 369.5,123.6 191.4,100.5 	"/>
	<polygon fill="#F58220" points="191.1,104.9 17.3,127.9 17.3,182.7 191.1,205.8 364.9,182.7 364.9,127.9 191.1,104.9 	"/>
	<path fill="#FFFFFF" d="M43.9,175.6v-7.2h-8.8v-10.6h5.8v-6.4h-5.8v-9.8h8.8v-6.9H27.2v40.9H43.9L43.9,175.6z M73.9,175.6v-40.9H67
		v22.5l-1.7-5.8l-4.7-16.8h-7.2v40.9h6.9v-22.5l1.8,5.7l5.2,16.8H73.9L73.9,175.6z M102.2,141.9v-7.2H83.1v7.2h5.6v33.7h7.9v-33.7
		H102.2L102.2,141.9z M131.4,175.6v-0.2c-0.6-2-1-4.1-1-6.6v-7.9c0-2-1.3-3.9-3.4-5c2-1.2,3.3-3,3.3-5v-8.2c0-5.5-4-7.9-7.9-7.9
		h-10.9v40.9h7.9v-16.6h1.8c1.1,0,1.7,1.1,1.7,2.1v8.2c0,2.6,0.7,6.3,1.9,6.3H131.4L131.4,175.6z M122.7,151c0,1.3-0.5,1.8-1.3,1.8
		h-2v-11.5h2c0.9,0,1.3,0.5,1.3,1.8V151L122.7,151z M157.3,175.6v-7.2h-8.8v-10.6h5.8v-6.4h-5.8v-9.8h8.8v-6.9h-16.6v40.9H157.3
		L157.3,175.6z M185.6,152v-9.1c0-5.7-3.6-8.2-7.7-8.2h-11v40.9h7.9v-15.4h3.1C181.9,160.2,185.6,157.7,185.6,152L185.6,152z
		 M178.1,152.3c0,1.3-0.6,1.8-1.4,1.8h-2v-12.8h2c0.9,0,1.4,0.5,1.4,1.8V152.3L178.1,152.3z M215,175.6v-0.2c-0.6-2-1-4.1-1-6.6
		v-7.9c0-2-1.4-3.9-3.4-5c2-1.2,3.3-3,3.3-5v-8.2c0-5.5-4-7.9-7.9-7.9h-10.9v40.9h7.9v-16.6h1.8c1.1,0,1.7,1.1,1.7,2.1v8.2
		c0,2.6,0.7,6.3,1.9,6.3H215L215,175.6z M206.3,151c0,1.3-0.5,1.8-1.4,1.8h-2v-11.5h2c0.9,0,1.4,0.5,1.4,1.8V151L206.3,151z
		 M241,175.6v-7.2h-8.8v-10.6h5.8v-6.4h-5.8v-9.8h8.8v-6.9h-16.6v40.9H241L241,175.6z M271,175.6v-40.9h-6.9v22.5l-1.7-5.8
		l-4.7-16.8h-7.2v40.9h6.9v-22.5l1.8,5.7l5.2,16.8H271L271,175.6z M297.6,175.6v-7.2h-8.8v-10.6h5.8v-6.4h-5.8v-9.8h8.8v-6.9H281
		v40.9H297.6L297.6,175.6z M326.3,167.2v-32.5h-7.6v32.7c0,1.1-0.8,1.8-1.9,1.8c-1,0-1.8-0.7-1.8-1.8v-32.7h-7.9v32.5
		c0,5.2,4.2,9.1,9.7,9.1C322.4,176.4,326.3,172.4,326.3,167.2L326.3,167.2z M356.3,175.6v-0.2c-0.6-2-1-4.1-1-6.6v-7.9
		c0-2-1.4-3.9-3.4-5c2-1.2,3.3-3,3.3-5v-8.2c0-5.5-4-7.9-7.9-7.9h-10.9v40.9h7.9v-16.6h1.8c1.1,0,1.7,1.1,1.7,2.1v8.2
		c0,2.6,0.7,6.3,1.9,6.3H356.3L356.3,175.6z M347.5,151c0,1.3-0.5,1.8-1.4,1.8h-2v-11.5h2c0.9,0,1.4,0.5,1.4,1.8V151L347.5,151z"/>
	<path fill="#F58220" d="M173.4,223.2l6.2-2.7v10.7h4v-14H179l-5.6,2.3V223.2L173.4,223.2z M192.5,221.3c0.9-0.9,2.7-1.5,6.1-1.5
		c3.6,0,6.6,0.7,8.5,1.6v-3.4c-1.7-0.7-4.5-1.3-8.5-1.3c-5,0-7.7,1.2-9.1,2.5c-1.1,1.1-1.8,3-1.8,5.2c0,2.3,0.6,4.1,1.7,5.2
		c1.4,1.4,3.8,2.1,8.6,2.1c6,0,8.1-0.9,9.2-2.1c0.7-0.7,1.1-1.7,1.1-2.9c0-1.2-0.3-2.2-1-2.9c-1.3-1.3-3.9-1.7-8.8-1.7
		c-3.9,0-5.8,0.8-7,2.1C191.5,223,191.8,222,192.5,221.3L192.5,221.3z M198.4,225.2c2.8,0,5.1,0.2,5.7,0.7c0.2,0.2,0.3,0.5,0.3,0.8
		c0,0.4-0.1,0.6-0.4,0.9c-0.6,0.6-2.8,0.9-6,0.9c-3.1,0-5.2-0.2-5.8-0.8c-0.2-0.2-0.4-0.5-0.4-0.9c0-0.4,0.1-0.6,0.3-0.8
		C192.8,225.5,195.3,225.2,198.4,225.2L198.4,225.2z"/>
	<path fill="#F58220" d="M169.4,85.5c2.8-1.2,5.9-2,9.7-2c2,0,4.1,0.2,4.7,0.8c0.1,0.1,0.2,0.3,0.2,0.6c0,0.2-0.1,0.4-0.2,0.5
		c-0.2,0.2-0.5,0.4-3.9,0.8c-8.8,1-11.5,3.2-11.8,8.7h19.5v-3.2l-14.7,0.1c0.3-0.8,1.1-1.8,6.2-2.5c5.6-0.7,6.9-1,7.8-1.9
		c0.5-0.5,0.9-1.3,0.9-2.5c0-1.1-0.3-2-1.1-2.7c-1-1-3.4-1.8-7.6-1.8c-4,0-7.1,0.7-9.6,1.7L169.4,85.5L169.4,85.5z M213.6,87.8
		c0-2.3-0.7-3.8-1.9-5c-1.3-1.3-3.9-2.5-9.4-2.5c-5.4,0-8.1,1.2-9.5,2.5c-1.2,1.2-1.9,2.7-1.9,5c0,2.3,0.7,3.8,1.9,5
		c1.3,1.3,4,2.5,9.5,2.5c5.5,0,8.1-1.2,9.4-2.5C212.9,91.6,213.6,90.1,213.6,87.8L213.6,87.8z M202.2,92.3c-3.6,0-5.5-0.7-6.3-1.5
		c-0.6-0.6-1.1-1.4-1.1-2.9s0.4-2.3,1-3c0.8-0.8,2.7-1.5,6.3-1.5c3.6,0,5.4,0.7,6.2,1.5c0.7,0.7,1.1,1.4,1.1,3s-0.4,2.3-1,3
		C207.7,91.7,205.8,92.3,202.2,92.3L202.2,92.3z"/>
	<path fill="#FFFFFF" d="M98.4,215.7c0.3,0.6,0.1,1-0.2,1.2c-0.5,0.3-1.1,0.2-2-1.1c-0.4-0.7-0.7-1.2-0.7-1.6c0-0.4,0.1-0.7,0.5-1
		l-3.4-5.1c-3.1,2.1-1.3,6,0.9,9.2c3.1,4.8,5.8,6.1,8.4,4.4c1.8-1.2,1.9-3.2,0.9-5.5l-2.6-5.6c-0.2-0.5-0.1-0.7,0.2-0.9
		c0.5-0.3,1.1-0.1,1.9,1.2c0.3,0.5,0.6,1,0.6,1.5c0.1,0.5,0,0.9-0.4,1.2l3.2,4.9c2.2-1.6,2.1-4.4-1-9.2c-2.3-3.5-4.8-5.7-7.6-3.9
		c-1.5,1-2.1,2.6-1.1,4.9L98.4,215.7L98.4,215.7z M104.8,222.3c-4.9,4.5-1.1,8.9,1,11.1c2.1,2.3,6.1,6.3,11,1.7
		c4.9-4.5,1.1-8.9-1-11.1C113.7,221.8,109.7,217.8,104.8,222.3L104.8,222.3z M108.5,226.3c1.9-1.8,3.6-1.5,5,0
		c1.4,1.5,1.6,3.2-0.4,5c-1.9,1.8-3.6,1.5-5,0C106.7,229.7,106.6,228,108.5,226.3L108.5,226.3z M114.9,242.3l3.9,2.9l4.2-5.8l0,0
		l0.1,9l4.5,3.3l7.6-10.4l-3.9-2.9l-4.2,5.8l0,0l0-8.8l-4.7-3.4L114.9,242.3L114.9,242.3z M133.7,248.2c-3,6,2.1,8.7,4.8,10.1
		c2.8,1.4,8,3.7,10.9-2.2c3-6-2.1-8.7-4.8-10.1C141.9,244.6,136.7,242.3,133.7,248.2L133.7,248.2z M138.6,250.6
		c1.2-2.3,2.8-2.7,4.6-1.8c1.9,0.9,2.6,2.4,1.4,4.8c-1.2,2.3-2.8,2.7-4.6,1.8C138.1,254.5,137.4,253,138.6,250.6L138.6,250.6z
		 M150.1,263.5l4.4,1.2l2.4-8.9l0,0l0.2,9.6l3.7,1l5-8.2l0,0l-2.4,8.9l4.4,1.2l3.4-12.4l-6.9-1.9l-4,6.7l0,0l-0.1-7.8l-6.9-1.9
		L150.1,263.5L150.1,263.5z M181.5,265.4l-3-0.3l1.9-4.2l0,0L181.5,265.4L181.5,265.4z M171,269.1l5.4,0.5l0.7-1.4l5.3,0.5l0.4,1.5
		l5.4,0.5l-4.3-13.3l-6.2-0.6L171,269.1L171,269.1z M210.4,263.7c-0.2,1.6-1,2.4-2.6,2.7c-1.8,0.3-3.3-0.5-3.7-3.1
		c-0.4-2.6,0.7-3.8,2.7-4.1c1.9-0.3,2.8,0.9,3,1.8l5.6-0.9c-1.5-4.9-6.2-4.5-9.2-4c-3,0.5-8.6,1.6-7.5,8.2c1.1,6.6,6.8,5.9,9.8,5.3
		c3.1-0.5,4.9-1.3,6-2.5c1.1-1.1,1.4-2.6,1.5-4.3L210.4,263.7L210.4,263.7z M217.9,261.1c2.2,6.3,7.7,4.6,10.6,3.6
		c2.9-1,8.2-3.1,6-9.4c-2.2-6.3-7.7-4.6-10.6-3.6C221,252.7,215.7,254.8,217.9,261.1L217.9,261.1z M223,259.3c-0.9-2.5,0-3.9,2-4.6
		c2-0.7,3.5-0.2,4.4,2.3c0.9,2.5,0,3.9-2,4.6C225.4,262.3,223.9,261.8,223,259.3L223,259.3z M237.6,255.6c2,3.6,4.8,3.4,9.3,0.9
		c4.6-2.5,6.1-4.8,4.1-8.4l-3.9-7l-4.4,2.5l3.8,6.8c0.8,1.4,0.2,2.4-1.2,3.2c-1.4,0.8-2.5,0.8-3.3-0.6l-3.8-6.8l-4.4,2.5
		L237.6,255.6L237.6,255.6z M257.1,250l3.8-3l-4.5-5.6l0,0l8.7,2.2l4.3-3.5l-8.1-10l-3.8,3l4.5,5.6l0,0l-8.5-2.3L249,240L257.1,250
		L257.1,250z M275,234.3l3.4-3.8l-7.2-6.4l3.1-3.5l-2.4-2.1l-9.6,10.8l2.4,2.1l3.1-3.5L275,234.3L275,234.3z M286.1,220.4l2.8-4.2
		l-3-2l-4.6-9.8l-3.2,4.8l2.9,4.8l-5.6-0.7l-3.2,4.8l10.8,0.3L286.1,220.4L286.1,220.4z"/>
	<path fill="#FFFFFF" d="M116.6,87.6l3.5-3.6l-2.6-2.5L115,70.9l-4,4.1l1.9,5.3l-5.3-1.8l-4,4.1l10.6,2.4L116.6,87.6L116.6,87.6z
		 M125.8,78.4l11-8l-1.8-2.5l-6.9,5.1l-1-1.4l6.4-4.7l-1.8-2.5l-6.4,4.7l-1-1.4l6.9-5.1l-1.8-2.5l-11,8L125.8,78.4L125.8,78.4z
		 M145.4,60.5l-2.7,1.4l-0.6-4.6l0,0L145.4,60.5L145.4,60.5z M138.4,69.1l4.8-2.4l-0.2-1.6l4.7-2.4l1.1,1.1l4.8-2.4l-10.6-9.1
		l-5.6,2.8L138.4,69.1L138.4,69.1z M155.9,60.5l4.9-1.3l-1-3.8l3.5-0.9c0.9-0.2,1.4,0.2,1.7,1.1c0.5,1.4,0.6,2,0.9,2.3l5.4-1.4
		c-0.4-0.3-0.8-0.8-1-1.3l-0.9-2.7c-0.4-1.1-1.1-1.5-1.9-1.5l0,0c1.3-0.8,1.5-2.2,1.1-3.3c-0.4-1.4-1.5-2.3-2.5-2.5
		c-0.8-0.1-1.7,0-3.1,0.3l-10.3,2.8L155.9,60.5L155.9,60.5z M158.3,49.9l3.4-0.9c0.8-0.2,1.5-0.2,1.7,0.8c0.2,0.8-0.1,1.3-1,1.5
		l-3.5,0.9L158.3,49.9L158.3,49.9z M182.2,48.1c-0.1,6.7,5.6,6.9,8.7,7c3.1,0,8.8-0.1,8.9-6.8c0.1-6.7-5.6-6.9-8.7-7
		C188,41.3,182.3,41.5,182.2,48.1L182.2,48.1z M187.6,48.2c0-2.6,1.4-3.6,3.4-3.6c2.1,0,3.4,1.1,3.3,3.7c0,2.6-1.4,3.6-3.4,3.6
		C188.9,51.9,187.6,50.8,187.6,48.2L187.6,48.2z M202.9,55.1l5,1l0.9-4.5l7.2,1.4l0.6-3.1l-7.2-1.4l0.4-1.9l7.8,1.5l0.6-3.1
		l-12.8-2.4L202.9,55.1L202.9,55.1z M229.8,62.3l4.6,2.1l4.1-8.7l4.3,2l1.4-2.9L231,48.7l-1.4,2.9l4.3,2L229.8,62.3L229.8,62.3z
		 M249.9,73.7l4.2,2.9l7.3-10.6l-4.2-2.9l-2.5,3.7l-4.7-3.3l2.5-3.7l-4.2-2.9L241,67.5l4.2,2.9l2.9-4.2l4.7,3.3L249.9,73.7
		L249.9,73.7z M256.9,79.1l9.8,9.5l2.2-2.2l-6.1-6l1.2-1.2l5.7,5.6l2.2-2.2l-5.7-5.6l1.2-1.2l6.1,6l2.2-2.2l-9.8-9.5L256.9,79.1
		L256.9,79.1z"/>
</g>
</svg>
